inDegrees=yes
name=results_flex.mot
DataType=double
version=3
OpenSimVersion=4.3-2021-08-27-4bc7ad9
endheader
time	pelvis_tilt	pelvis_list	pelvis_rotation	pelvis_tx	pelvis_ty	pelvis_tz	hip_flexion_r	hip_adduction_r	hip_rotation_r	knee_angle_r	knee_angle_r_beta	ankle_angle_r	subtalar_angle_r	mtp_angle_r	hip_flexion_l	hip_adduction_l	hip_rotation_l	knee_angle_l	knee_angle_l_beta	ankle_angle_l	subtalar_angle_l	mtp_angle_l	lumbar_extension	lumbar_bending	lumbar_rotation	arm_flex_r	arm_add_r	arm_rot_r	elbow_flex_r	pro_sup_r	wrist_flex_r	wrist_dev_r	arm_flex_l	arm_add_l	arm_rot_l	elbow_flex_l	pro_sup_l	wrist_flex_l	wrist_dev_l
75	-0.37544622542228	-0.7541562485068494	-89.47731288842213	0	0.9399999999999999	0	45.02037113508349	-9.987201676665356	0	59.51081083379065	1.038659589581159	-4.992863811204476	0	0	45.02037113508349	-9.987201676665356	0	59.51081083379065	1.038659589581159	-4.992863811204476	0	0	0.3808444480950119	5.041010386114175	-1.114193894071916	4.007904941245758	-7.358989012636202	2.520418476833979	3.353841458421732	45.01506432135048	0	0	0	-13.33418964643042	0	75.20987112532585	45.01506432135048	0	0
76	-0.3720926983345118	-0.7604464630218812	-89.46838664025782	0	0.9399999999999999	0	45.02035969113433	-9.987228429557419	0	59.51102730026711	1.038663367633893	-4.992883631318852	0	0	45.02035969113433	-9.987228429557419	0	59.51102730026711	1.038663367633893	-4.992883631318852	0	0	0.01431913273519079	5.829293795166228	-0.3827168157896505	3.001778768793628	-9.127434776762083	2.595588737868829	0.1018705708322747	45.01503977752115	0	0	0	-13.33465951258828	0	75.20975332315022	45.01503977752115	0	0
77	-0.3804398370251113	-0.7580955185939779	-89.47820799125685	0	0.9399999999999999	0	45.02031603181442	-9.987298980473208	0	59.5120431112632	1.038681096880353	-4.992931708857939	0	0	45.02031603181442	-9.987298980473208	0	59.5120431112632	1.038681096880353	-4.992931708857939	0	0	0.01995150475833378	5.826200558204874	-0.3789914537077658	1.43849929144053	-10.40737688958015	2.867157546211506	0.07074912102300629	45.01497016169986	0	0	0	-13.33678370081573	0	75.20930390239563	45.01497016169986	0	0
78	-0.3744185475977183	-0.7588662388479078	-89.47427203215062	0	0.9399999999999999	0	45.02030948046799	-9.987313332672146	0	59.51216636419864	1.038683248049889	-4.992942133085843	0	0	45.02030948046799	-9.987313332672146	0	59.51216636419864	1.038683248049889	-4.992942133085843	0	0	0.01676883649604523	5.824393840347844	-0.3820260237919701	0.1843174668323671	-10.99714459777716	2.470909247357241	0.03940488784058471	45.01495678742486	0	0	0	-13.33705787313525	0	75.20923646390787	45.01495678742486	0	0
79	-0.3628778928882546	-0.7410711697039705	-89.4881000176764	0	0.9399999999999999	0	45.02030533638981	-9.987322389204307	0	59.51224444405522	1.038684610800466	-4.99294870690627	0	0	45.02030533638981	-9.987322389204307	0	59.51224444405522	1.038684610800466	-4.99294870690627	0	0	0.03785821240532906	5.808281552381968	-0.3569657737263729	0.3479068893996539	-11.42831793049296	2.826753496257202	0.04000419649732045	45.01494834372805	0	0	0	-13.33723150059816	0	75.20919380544635	45.01494834372805	0	0
80	-0.3749774213410743	-0.7499879606168434	-89.47815186292179	0	0.9399999999999999	0	45.02029971419064	-9.987334685714995	0	59.51235026206302	1.03868645767311	-4.992957632639038	0	0	45.02029971419064	-9.987334685714995	0	59.51235026206302	1.03868645767311	-4.992957632639038	0	0	0.02261529704901047	5.818326108361288	-0.3743854321057012	0.1890189770697155	-10.98686205122214	2.466780795261574	0.03940748125921018	45.0149368801002	0	0	0	-13.33746689945796	0	75.20913593144913	45.0149368801002	0	0
81	-0.3724650920634886	-0.7573609397382755	-89.47587288149758	0	0.9399999999999999	0	45.02029841084386	-9.987337527156582	0	59.51237483270331	1.038686886511682	-4.99295969327711	0	0	45.02029841084386	-9.987337527156582	0	59.51237483270331	1.038686886511682	-4.99295969327711	0	0	0.02630561611717754	5.821809638118894	-0.3759854696022528	0.1717933108347783	-10.99753673513046	2.462975142602763	0.03946491516803052	45.01493422919739	0	0	0	-13.33752153836847	0	75.20912251501125	45.01493422919739	0	0
82	-0.3759897705293569	-0.7504618317100403	-89.48412310945814	0	0.9399999999999999	0	45.02029323753938	-9.987348751133732	0	59.51247278467174	1.03868859609604	-4.992967826507242	0	0	45.02029323753938	-9.987348751133732	0	59.51247278467174	1.03868859609604	-4.992967826507242	0	0	0.03006252736857611	5.82689278872495	-0.3731539480918166	0.6201774618855548	-10.88397829959695	2.506420481499766	0.0462413225367141	45.01492374974929	0	0	0	-13.33773909152786	0	75.20906926186618	45.01492374974929	0	0
83	-0.01085678836852667	0.005826166770285273	-89.99849600100676	0	0.9399999999999999	0	45.02028798854738	-9.987360092185773	0	59.51257244919861	1.038690335570182	-4.99297603666912	0	0	45.02028798854738	-9.987360092185773	0	59.51257244919861	1.038690335570182	-4.99297603666912	0	0	0.7216019781844292	5.45860257295908	0.1469515474179354	0.6271500967144601	-10.87715057109161	2.504782380530914	0.0459785244191343	45.01491315237253	0	0	0	-13.33796029081782	0	75.20901522960823	45.01491315237253	0	0
84	-0.0009224194381697899	0.00450164783418594	-90.0061165999759	0	0.9399999999999999	0	45.02028231943559	-9.987372441502478	0	59.51267933350081	1.038692201053174	-4.99298498935261	0	0	45.02028231943559	-9.987372441502478	0	59.51267933350081	1.038692201053174	-4.99298498935261	0	0	0.7333653769422172	5.452577799653588	0.154836994926386	1.388435673276833	-10.76648694759437	2.431155143922253	0.06564908090168144	45.01490162851022	0	0	0	-13.3381980137688	0	75.20895687270207	45.01490162851022	0	0
85	-0.006794931858258827	-0.007339841598618412	-89.99835518011592	0	0.9399999999999999	0	45.02027691954449	-9.987384208547729	0	59.51278106493479	1.038693976601649	-4.992993519196082	0	0	45.02027691954449	-9.987384208547729	0	59.51278106493479	1.038693976601649	-4.992993519196082	0	0	0.7216310996882457	5.45432781024585	0.1466881693426883	1.315008742324868	-9.425304848233111	1.933164439672237	0.06369618429498844	45.01489064784838	0	0	0	-13.33842434455003	0	75.20890128710944	45.01489064784838	0	0
86	-0.02360271465109835	0.0004712247950424057	-89.98494226067126	0	0.9399999999999999	0	45.02027327113276	-9.987392147693237	0	59.51284984522922	1.038695177044248	-4.9929992717911	0	0	45.02027327113276	-9.987392147693237	0	59.51284984522922	1.038695177044248	-4.9929992717911	0	0	0.7230700166611245	5.478769815931353	0.1290390178680551	1.176114168302352	-8.992834817720578	1.567775827404654	0.06210675178378065	45.01488323686591	0	0	0	-13.33857734911131	0	75.20886373095834	45.01488323686591	0	0
87	-0.5654682242222766	-0.529253337471516	-90.75206236181214	0	0.9399999999999999	0	45.02026630517206	-9.987407154639971	0	59.51298216836032	1.038697486518562	-4.993010122999689	0	0	45.02026630517206	-9.987407154639971	0	59.51298216836032	1.038697486518562	-4.993010122999689	0	0	0.120393880366568	6.024094789678581	0.8988464419929776	1.595032371026424	-8.881880726775364	1.586933063533665	0.0807047398506084	45.01486920243713	0	0	0	-13.33887109808973	0	75.20879202450924	45.01486920243713	0	0
88	-0.3743400946012513	-0.7601399125157167	-89.47642949980984	0	0.9399999999999999	0	45.02025863161533	-9.987423774879904	0	59.5131272018429	1.038700017830358	-4.993022150313381	0	0	45.02025863161533	-9.987423774879904	0	59.5131272018429	1.038700017830358	-4.993022150313381	0	0	0.01478899722144317	5.824194195102422	-0.3819541467300455	2.072494452244249	-9.45884272318346	0.9534625132666923	0.1053787419921153	45.01485367209627	0	0	0	-13.33919356509023	0	75.20871303417968	45.01485367209627	0	0
89	-0.3776995929623009	-0.7500284579440513	-89.47806061933663	0	0.9399999999999999	0	45.02025368976371	-9.987434542842509	0	59.51322009929414	1.038701639196749	-4.993029950082501	0	0	45.02025368976371	-9.987434542842509	0	59.51322009929414	1.038701639196749	-4.993029950082501	0	0	0.02211842011030005	5.823353955746443	-0.3785534238436784	2.078631967295018	-9.45808291662162	0.9518558325835214	0.1059368363307563	45.01484361989444	0	0	0	-13.33940045485462	0	75.20866216356978	45.01484361989444	0	0
90	-0.005185586434753888	0.0008805035334758024	-89.99738692720449	0	0.9399999999999999	0	45.02024747324543	-9.98744792485877	0	59.51333805711006	1.038703697949016	-4.993039619466581	0	0	45.02024747324543	-9.98744792485877	0	59.51333805711006	1.038703697949016	-4.993039619466581	0	0	0.7190072682407	5.45518368911112	0.1471062110455966	2.074041940073186	-9.457789235350365	0.9511860240931747	0.1048918369923231	45.01483109987934	0	0	0	-13.33966247878281	0	75.20859817175747	45.01483109987934	0	0
91	-0.001229073595167756	0.002209122444114244	-89.99903719763452	0	0.9399999999999999	0	45.02024465525322	-9.98745405204294	0	59.51339106429625	1.038704623098942	-4.993044054362273	0	0	45.02024465525322	-9.98745405204294	0	59.51339106429625	1.038704623098942	-4.993044054362273	0	0	0.7280310781897213	5.452829285722467	0.1516763333009231	2.060984656449008	-9.462647729153526	0.9445625753589347	0.1060849185182009	45.01482537684853	0	0	0	-13.33978052868394	0	75.20856916380839	45.01482537684853	0	0
92	-0.005673926638722783	-0.02248351704593534	-90.00909493107268	0	0.9399999999999999	0	45.0202428811573	-9.987457884069251	0	59.51342461214163	1.038705208619301	-4.993046824430919	0	0	45.0202428811573	-9.987457884069251	0	59.51342461214163	1.038705208619301	-4.993046824430919	0	0	0.6783925398003794	5.48593345805406	0.1788176188275928	1.71986938732253	-9.297885050948073	1.121976297102161	0.1340390962738486	45.01482179339438	0	0	0	-13.3398551314032	0	75.20855090155737	45.01482179339438	0	0
93	-0.007317729811417855	0.01809061829330817	-90.00614368124283	0	0.9399999999999999	0	45.02023845586398	-9.987467462675131	0	59.51350814428208	1.038706666530183	-4.993053751068978	0	0	45.02023845586398	-9.987467462675131	0	59.51350814428208	1.038706666530183	-4.993053751068978	0	0	0.7385718522223809	5.462663760274187	0.1675131821940577	1.93058425700648	-8.891576323832417	1.468980464085866	0.1025119188270022	45.01481283927365	0	0	0	-13.34004098998289	0	75.20850534831652	45.01481283927365	0	0
94	-0.002015993541479301	0.002523518147020362	-89.99810581334202	0	0.9399999999999999	0	45.02023149045806	-9.987482514708324	0	59.51363971547801	1.038708962880753	-4.993064630143821	0	0	45.02023149045806	-9.987482514708324	0	59.51363971547801	1.038708962880753	-4.993064630143821	0	0	0.004781691077528838	5.723438762615758	-0.1515403578776563	3.065714440099279	-9.342846133014907	1.672022315526311	0.0838315903877541	45.0147987630907	0	0	0	-13.34033370661509	0	75.20843364757579	45.0147987630907	0	0
95	-0.001100932907346327	0.002547271231442142	-89.99934968791628	0	0.9399999999999999	0	45.02022855753529	-9.987488879097979	0	59.51369489649039	1.038709925971103	-4.993069232880448	0	0	45.02022855753529	-9.987488879097979	0	59.51369489649039	1.038709925971103	-4.993069232880448	0	0	0.01343924359773033	5.724224234136403	-0.1478202560367877	3.049075443433581	-9.343483575520139	1.667520358341401	0.08405397041379381	45.01479281507621	0	0	0	-13.34045662247167	0	75.20840345655101	45.01479281507621	0	0
96	0.000973563950063964	-0.0005565791100670502	-89.99996646536505	0	0.9399999999999999	0	45.02022384751416	-9.987498998871624	0	59.51378419690577	1.038711484557375	-4.993076536877416	0	0	45.02022384751416	-9.987498998871624	0	59.51378419690577	1.038711484557375	-4.993076536877416	0	0	0.3691202200399065	6.464899249397019	-0.917789105892317	2.83746577089078	-10.04828663117751	2.446456979700809	0.08378881650860344	45.01478334039449	0	0	0	-13.34065511508284	0	75.20835497237178	45.01478334039449	0	0
